<svg width="66" height="66" viewBox="0 0 66 66" fill="none" xmlns="http://www.w3.org/2000/svg">
<path d="M42.2903 50.5484H17.1085C16.0476 50.5484 15.0302 50.9698 14.28 51.72L13.5264 52.4736C12.7763 53.2237 12.3548 54.2411 12.3548 55.302V56.871C12.3548 59.0801 14.1457 60.871 16.3548 60.871H61C63.2091 60.871 65 59.0801 65 56.871V5C65 2.79086 63.2091 1 61 1H16.3548C14.1457 1 12.3548 2.79086 12.3548 5V10.0901C12.3548 11.4951 13.092 12.7972 14.2969 13.52L16.5661 14.8816C17.1877 15.2546 17.8991 15.4516 18.6241 15.4516H20.6129M42.2903 50.5484V56.7419M42.2903 50.5484V19.4516C42.2903 17.2425 40.4995 15.4516 38.2903 15.4516H34.0323M20.6129 15.4516H34.0323M20.6129 15.4516V21.6452M34.0323 15.4516V20.7419C34.0323 22.9511 32.2414 24.7419 30.0323 24.7419H27.3226M27.3226 24.7419H23.7097C21.9994 24.7419 20.6129 23.3555 20.6129 21.6452V21.6452M27.3226 24.7419C27.3226 24.7419 27.3226 29.9032 27.3226 26.8064M20.6129 21.6452H16.4839M16.4839 21.6452V21.6452C16.4839 20.4834 15.5831 19.5206 14.4239 19.4433L4.08991 18.7544C2.4177 18.6429 1 19.9692 1 21.6452V21.6452C1 23.3211 2.4177 24.6474 4.08991 24.5359L14.4239 23.847C15.5831 23.7697 16.4839 22.8069 16.4839 21.6452V21.6452ZM19.5806 40.2258C19.5806 40.2258 20 42.5 21.6452 44.3548C23.1193 46.0169 26.5101 45.6198 27.1991 45.5193C27.283 45.5071 27.3639 45.4955 27.4479 45.4847C27.9919 45.415 30.1996 45.0986 31.9677 44.3548C34 43.5 35 42 36.0968 40.2258C37.1935 38.4516 36.5 34.0323 36.0968 34.0323C35.6935 34.0323 19.5806 34.0323 19.5806 34.0323M19.5806 40.2258V34.0323M19.5806 40.2258H18.4286C17.2136 40.2258 16.0791 39.6186 15.4052 38.6077L15.1513 38.227C14.6895 37.5342 14.5734 36.667 14.8366 35.8771V35.8771C15.2039 34.7754 16.235 34.0323 17.3963 34.0323H19.5806M14.4194 65C14.4194 65 17.565 65 19.5806 65M57.7742 65H61.9032" stroke="white" stroke-linecap="round" stroke-linejoin="round"/>
</svg>
