<svg width="66" height="66" viewBox="0 0 66 66" fill="none" xmlns="http://www.w3.org/2000/svg">
<path d="M13.3871 62.5849H12.2581C10.6012 62.5849 9.25806 61.2418 9.25806 59.5849V52.9245M13.3871 62.5849L14.2165 64.5254C14.3395 64.8133 14.6224 65 14.9355 65V65C15.2485 65 15.5314 64.8133 15.6545 64.5254L16.4839 62.5849M13.3871 62.5849H16.4839M16.4839 62.5849H48.4839M48.4839 62.5849L49.3133 64.5254C49.4363 64.8133 49.7192 65 50.0323 65V65C50.3453 65 50.6282 64.8133 50.7512 64.5254L51.5806 62.5849M48.4839 62.5849H51.5806M51.5806 62.5849H52.7097C54.3665 62.5849 55.7097 61.2418 55.7097 59.5849V52.9245M9.25806 52.9245H11.3226M9.25806 52.9245V22.7358M15.4516 52.9245H55.7097M55.7097 52.9245V23.9434M23.7097 7.03774H12.2581C10.6012 7.03774 9.25806 8.38088 9.25806 10.0377V22.7358M23.7097 7.03774V4C23.7097 2.34315 25.0528 1 26.7097 1H39.2903C40.9472 1 42.2903 2.34315 42.2903 4V7.03774M23.7097 7.03774H42.2903M42.2903 7.03774H52.7097C54.3665 7.03774 55.7097 8.38088 55.7097 10.0377V23.9434M54.6774 16.6981H62.848C64.0365 16.6981 65 17.6616 65 18.8501V18.8501C65 19.7369 64.456 20.5329 63.6298 20.855L55.7097 23.9434M9.25806 22.7358L2.4895 20.7564C1.6067 20.4982 1 19.6886 1 18.7689V18.7689C1 17.6252 1.92711 16.6981 3.07075 16.6981H21.6452M50.5484 16.6981H44.3548M44.3548 16.6981V42.6792C44.3548 44.3361 43.0117 45.6792 41.3548 45.6792H24.6452C22.9883 45.6792 21.6452 44.3361 21.6452 42.6792V16.6981M44.3548 16.6981H21.6452M25.7742 31.1887H27.8387M31.9677 31.1887H34.0323M38.1613 31.1887H40.2258M40.2258 36.0189H38.1613M40.2258 40.8491H38.1613M31.9677 40.8491H34.0323M34.0323 36.0189H31.9677M27.8387 36.0189H25.7742M27.8387 40.8491H25.7742M28.1893 26.3585H37.8107C39.1445 26.3585 40.2258 25.2772 40.2258 23.9434V23.9434C40.2258 22.6096 39.1445 21.5283 37.8107 21.5283H28.1893C26.8555 21.5283 25.7742 22.6096 25.7742 23.9434V23.9434C25.7742 25.2772 26.8555 26.3585 28.1893 26.3585Z" stroke="white" stroke-linecap="round" stroke-linejoin="round"/>
</svg>
